<svg width="22" height="22" viewBox="0 0 22 22" fill="none" xmlns="http://www.w3.org/2000/svg">
<g clip-path="url(#clip0_21_63)">
<rect width="21.2367" height="21.2367" transform="translate(0 0.457031)" fill="black"/>
<path d="M3.8777 0.457031C1.72962 0.457031 0 2.18666 0 4.33473V17.8161C0 19.9641 1.72962 21.6938 3.8777 21.6938H11.1845V13.3915H8.98912V10.4025H11.1845V7.84875C11.1845 5.84241 12.4816 4.00025 15.4696 4.00025C16.6794 4.00025 17.5741 4.11639 17.5741 4.11639L17.5037 6.90771C17.5037 6.90771 16.5913 6.89908 15.5957 6.89908C14.5182 6.89908 14.3454 7.39556 14.3454 8.21975V10.4025H17.5893L17.448 13.3916H14.3454V21.6938H17.359C19.5071 21.6938 21.2367 19.9642 21.2367 17.8161V4.33475C21.2367 2.18668 19.5071 0.457052 17.359 0.457052H3.87768L3.8777 0.457031Z" fill="white"/>
</g>
<defs>
<clipPath id="clip0_21_63">
<rect width="21.2367" height="21.2367" fill="white" transform="translate(0 0.457031)"/>
</clipPath>
</defs>
</svg>
