<svg width="283" height="222" viewBox="0 0 283 222" fill="none" xmlns="http://www.w3.org/2000/svg">
<circle cx="28" cy="3" r="3" fill="#D7D7D7"/>
<circle cx="28" cy="39" r="3" fill="#D7D7D7"/>
<circle cx="28" cy="75" r="3" fill="#D7D7D7"/>
<circle cx="28" cy="111" r="3" fill="#D7D7D7"/>
<circle cx="28" cy="147" r="3" fill="#D7D7D7"/>
<circle cx="28" cy="183" r="3" fill="#D7D7D7"/>
<circle cx="28" cy="219" r="3" fill="#D7D7D7"/>
<circle cx="64" cy="3" r="3" fill="#D7D7D7"/>
<circle cx="64" cy="39" r="3" fill="#D7D7D7"/>
<circle cx="64" cy="75" r="3" fill="#D7D7D7"/>
<circle cx="64" cy="111" r="3" fill="#D7D7D7"/>
<circle cx="64" cy="147" r="3" fill="#D7D7D7"/>
<circle cx="64" cy="183" r="3" fill="#D7D7D7"/>
<circle cx="64" cy="219" r="3" fill="#D7D7D7"/>
<circle cx="100" cy="3" r="3" fill="#D7D7D7"/>
<circle cx="100" cy="39" r="3" fill="#D7D7D7"/>
<circle cx="100" cy="75" r="3" fill="#D7D7D7"/>
<circle cx="100" cy="111" r="3" fill="#D7D7D7"/>
<circle cx="100" cy="147" r="3" fill="#D7D7D7"/>
<circle cx="100" cy="183" r="3" fill="#D7D7D7"/>
<circle cx="100" cy="219" r="3" fill="#D7D7D7"/>
<circle cx="136" cy="3" r="3" fill="#D7D7D7"/>
<circle cx="136" cy="39" r="3" fill="#D7D7D7"/>
<circle cx="136" cy="75" r="3" fill="#D7D7D7"/>
<circle cx="136" cy="111" r="3" fill="#D7D7D7"/>
<circle cx="136" cy="147" r="3" fill="#D7D7D7"/>
<circle cx="136" cy="183" r="3" fill="#D7D7D7"/>
<circle cx="136" cy="219" r="3" fill="#D7D7D7"/>
<circle cx="172" cy="3" r="3" fill="#D7D7D7"/>
<circle cx="172" cy="39" r="3" fill="#D7D7D7"/>
<circle cx="172" cy="75" r="3" fill="#D7D7D7"/>
<circle cx="172" cy="111" r="3" fill="#D7D7D7"/>
<circle cx="172" cy="147" r="3" fill="#D7D7D7"/>
<circle cx="172" cy="183" r="3" fill="#D7D7D7"/>
<circle cx="172" cy="219" r="3" fill="#D7D7D7"/>
<circle cx="208" cy="3" r="3" fill="#D7D7D7"/>
<circle cx="208" cy="39" r="3" fill="#D7D7D7"/>
<circle cx="208" cy="75" r="3" fill="#D7D7D7"/>
<circle cx="208" cy="111" r="3" fill="#D7D7D7"/>
<circle cx="208" cy="147" r="3" fill="#D7D7D7"/>
<circle cx="208" cy="183" r="3" fill="#D7D7D7"/>
<circle cx="208" cy="219" r="3" fill="#D7D7D7"/>
<circle cx="244" cy="3" r="3" fill="#D7D7D7"/>
<circle cx="244" cy="39" r="3" fill="#D7D7D7"/>
<circle cx="244" cy="75" r="3" fill="#D7D7D7"/>
<circle cx="244" cy="111" r="3" fill="#D7D7D7"/>
<circle cx="244" cy="147" r="3" fill="#D7D7D7"/>
<circle cx="244" cy="183" r="3" fill="#D7D7D7"/>
<circle cx="244" cy="219" r="3" fill="#D7D7D7"/>
<circle cx="280" cy="3" r="3" fill="#D7D7D7"/>
<circle cx="280" cy="39" r="3" fill="#D7D7D7"/>
<circle cx="280" cy="75" r="3" fill="#D7D7D7"/>
<circle cx="280" cy="111" r="3" fill="#D7D7D7"/>
<circle cx="280" cy="147" r="3" fill="#D7D7D7"/>
<circle cx="280" cy="183" r="3" fill="#D7D7D7"/>
<circle cx="280" cy="219" r="3" fill="#D7D7D7"/>
</svg>
