<svg width="29" height="29" viewBox="0 0 29 29" fill="none" xmlns="http://www.w3.org/2000/svg">
<path d="M14.3286 10.4109C12.3107 10.4109 10.664 12.0576 10.664 14.0755C10.664 16.0933 12.3107 17.7401 14.3286 17.7401C16.3464 17.7401 17.9932 16.0933 17.9932 14.0755C17.9932 12.0576 16.3464 10.4109 14.3286 10.4109ZM25.3196 14.0755C25.3196 12.558 25.3333 11.0542 25.2481 9.53943C25.1629 7.77999 24.7615 6.21849 23.4749 4.9319C22.1856 3.64257 20.6268 3.24394 18.8674 3.15872C17.3499 3.0735 15.8461 3.08724 14.3313 3.08724C12.8138 3.08724 11.3101 3.0735 9.79529 3.15872C8.03585 3.24394 6.47435 3.64531 5.18776 4.9319C3.89843 6.22124 3.4998 7.77999 3.41458 9.53943C3.32936 11.0569 3.3431 12.5607 3.3431 14.0755C3.3431 15.5902 3.32936 17.0968 3.41458 18.6115C3.4998 20.371 3.90117 21.9325 5.18776 23.2191C6.4771 24.5084 8.03585 24.907 9.79529 24.9922C11.3128 25.0775 12.8166 25.0637 14.3313 25.0637C15.8489 25.0637 17.3526 25.0775 18.8674 24.9922C20.6268 24.907 22.1883 24.5056 23.4749 23.2191C24.7643 21.9297 25.1629 20.371 25.2481 18.6115C25.3361 17.0968 25.3196 15.593 25.3196 14.0755ZM14.3286 19.7139C11.2083 19.7139 8.69014 17.1957 8.69014 14.0755C8.69014 10.9552 11.2083 8.43703 14.3286 8.43703C17.4488 8.43703 19.967 10.9552 19.967 14.0755C19.967 17.1957 17.4488 19.7139 14.3286 19.7139ZM20.198 9.52294C19.4694 9.52294 18.8811 8.93462 18.8811 8.20611C18.8811 7.47759 19.4694 6.88928 20.198 6.88928C20.9265 6.88928 21.5148 7.47759 21.5148 8.20611C21.515 8.3791 21.4811 8.55043 21.415 8.71029C21.3489 8.87016 21.2519 9.01541 21.1296 9.13773C21.0073 9.26005 20.862 9.35704 20.7022 9.42314C20.5423 9.48924 20.371 9.52315 20.198 9.52294Z" fill="white"/>
</svg>
