<svg width="23" height="26" viewBox="0 0 23 26" fill="none" xmlns="http://www.w3.org/2000/svg">
<g clip-path="url(#clip0_21_65)">
<rect width="22.2245" height="24.6939" transform="translate(0.114502 0.481445)" fill="black"/>
<path d="M19.9578 2.0249H2.4957C1.18108 2.0249 0.114502 3.06185 0.114502 4.33995V21.317C0.114502 22.5951 1.18108 23.632 2.4957 23.632H19.9578C21.2724 23.632 22.339 22.5951 22.339 21.317V4.33995C22.339 3.06185 21.2724 2.0249 19.9578 2.0249ZM17.5319 9.68386C17.5419 9.8189 17.5419 9.95877 17.5419 10.0938C17.5419 14.2754 14.2677 19.0936 8.28497 19.0936C6.43955 19.0936 4.72806 18.5727 3.28943 17.6756C3.55235 17.7045 3.80535 17.7142 4.07324 17.7142C5.59621 17.7142 6.99516 17.2126 8.11134 16.3637C6.68263 16.3348 5.48211 15.4233 5.07036 14.1693C5.5714 14.2416 6.02284 14.2416 6.53876 14.1114C5.05052 13.8172 3.93433 12.5439 3.93433 11.0054V10.9668C4.36592 11.2031 4.87193 11.3478 5.40274 11.3671C4.95647 11.0785 4.59064 10.687 4.33788 10.2275C4.08512 9.76799 3.9533 9.2548 3.95418 8.73372C3.95418 8.14531 4.11292 7.60514 4.39569 7.1373C5.99803 9.05687 8.40403 10.3109 11.1027 10.4459C10.6414 8.29965 12.2933 6.55854 14.2776 6.55854C15.2152 6.55854 16.0586 6.93956 16.6539 7.55691C17.3881 7.42186 18.0925 7.1566 18.7176 6.79487C18.4745 7.52797 17.9635 8.14531 17.2889 8.53598C17.9437 8.46846 18.5787 8.29001 19.164 8.04403C18.7225 8.67585 18.1669 9.23532 17.5319 9.68386Z" fill="white"/>
</g>
<defs>
<clipPath id="clip0_21_65">
<rect width="22.2245" height="24.6939" fill="white" transform="translate(0.114502 0.481445)"/>
</clipPath>
</defs>
</svg>
